#format: frame checksums
#version: 1
#hash: MD5
#tb 0: 1/25
#stream#, dts,        pts, duration,     size, hash
0,          0,          0,        1,   191800, 4a5653458a4206bcbc584d5e6beb61f2
0,          1,          1,        1,   191820, 2f77ced17c186b507864ea482016c913
0,          2,          2,        1,   191668, 2dd719b7228e3b38e1e86a0304a599f1
0,          3,          3,        1,   191696, 4fe7ef1586ef85f3ceb579426ff4077f
0,          4,          4,        1,   191972, 9b9718c63d0b6f6bc293036bcf7a884d
0,          5,          5,        1,   191760, 24fbe86d07c66d4f791533219a6bbca5
0,          6,          6,        1,   191708, 32f4e266cc3e22e8b5ad354f4685ca9f
0,          7,          7,        1,   191688, 9614c1881c3c2807ac492b1c3d689559
0,          8,          8,        1,   191568, a4e53b02fdbc66c47e099cb3506a5f27
0,          9,          9,        1,   191544, c3f2fcb7a299163e72faa93522405def
0,         10,         10,        1,   191468, 598cb568c2e4b651f04511eea480b8f0
0,         11,         11,        1,   191280, 7ac77492856c214f6266da9eea4cc766
0,         12,         12,        1,   191700, 5b261fda1cdafc11596fca42e902e8a9
0,         13,         13,        1,   191424, c31421daddb684ec01a0b8953a340891
0,         14,         14,        1,   191416, 742171e3f053ffb7f27dd14e9a408e33
0,         15,         15,        1,   191408, 06efc3afdf3c97c6c6e6f76eeea217b7
0,         16,         16,        1,   191500, ee9d95219dc34981f1e3a9feee21a12a
0,         17,         17,        1,   191580, 9fd14328b5f304cab54405b2e7b6dd74
0,         18,         18,        1,   191608, 84374f2e0540d97f4f5a5282397d1fd4
0,         19,         19,        1,   191616, 6f8d0b3143d78d87209815e4f14e8fde
0,         20,         20,        1,   191596, 4533cb5577bbee750eee21966f3e6b87
0,         21,         21,        1,   191660, c9cbe09e11e7bb47565d54ec25e407e1
0,         22,         22,        1,   191536, 3a9168133d91c67219052869bb4a1aa9
0,         23,         23,        1,   191576, 0df4b9398953fe710b949cc3912927a1
0,         24,         24,        1,   191636, 5ee06edd617272e33b59da14e9e472b5
0,         25,         25,        1,   191524, 3e09b926cf3dbed003746d0fc4bb9eb1
0,         26,         26,        1,   191640, e4f9408633b8cb13578de8caca4afd77
0,         27,         27,        1,   191800, 7c57ae6d60df4676c132de16ebf1ec24
0,         28,         28,        1,   192028, 36fd55e15ee357478bdd3085adc5d1f9
0,         29,         29,        1,   191964, 82a4fd877d4dba1266fc28d9a74e5cf3
0,         30,         30,        1,   191732, 3d905c393537ccdbdc2bb83cfc9ac1f3
0,         31,         31,        1,   191788, 92e647f7728fe892c3f97d866aa9e6e7
0,         32,         32,        1,   191636, d26af69ceee2e7433e04da1eee6a4043
0,         33,         33,        1,   191400, 9e5d147eea116586d13cec38e59d0e90
0,         34,         34,        1,   191332, 93419f91d6d4d274344a0f184f03210a
0,         35,         35,        1,   191548, 61c4c7a96c86ccb5189daa63b3219340
0,         36,         36,        1,   191852, 62fd435d20d032686bf9bad5ac5252b8
0,         37,         37,        1,   191828, 2487f780f709f38c38a19b1d0e255575
0,         38,         38,        1,   191808, 5bd0d224585427f2fa6fca1392ea6273
0,         39,         39,        1,   191700, deaed17ec6cbc863313b7698114d54fd
0,         40,         40,        1,   191812, 296dce78545cf89745c13f117347949b
0,         41,         41,        1,   191548, 0273c1819d7af2f49b1b86b238414702
0,         42,         42,        1,   191544, e9e29ab1e3f9fd5bff18748f38a3a79d
0,         43,         43,        1,   191700, c211fa96ed541d7d53bc975577bd7bbc
0,         44,         44,        1,   191780, cfcd29e8a289aa0f2d4026189bb0b966
0,         45,         45,        1,   191952, 0c1f04a3877565eb8bd76b652626a27f
0,         46,         46,        1,   191916, 1e49ee7ea02c2df7e0b6187fcc6cbdbe
0,         47,         47,        1,   191784, 5fa516e0bb264c767e49169cf7accd23
0,         48,         48,        1,   191716, 3a7abe462356b1020f3c8d496bcbbbdc
0,         49,         49,        1,   191728, cf5fb801291c77b04d9937e4b828f772
